<?xml version="1.0" encoding="UTF-8" standalone="no"?>
<!-- Created with Inkscape (http://www.inkscape.org/) -->

<svg
   width="600"
   height="200"
   viewBox="0 0 158.75002 52.916665"
   version="1.1"
   id="svg12"
   sodipodi:docname="data-types-1.svg"
   inkscape:version="1.2 (dc2aedaf03, 2022-05-15)"
   xmlns:inkscape="http://www.inkscape.org/namespaces/inkscape"
   xmlns:sodipodi="http://sodipodi.sourceforge.net/DTD/sodipodi-0.dtd"
   xmlns="http://www.w3.org/2000/svg"
   xmlns:svg="http://www.w3.org/2000/svg">
  <sodipodi:namedview
     id="namedview14"
     pagecolor="#ffffff"
     bordercolor="#666666"
     borderopacity="1.0"
     inkscape:showpageshadow="2"
     inkscape:pageopacity="0.0"
     inkscape:pagecheckerboard="0"
     inkscape:deskcolor="#d1d1d1"
     inkscape:document-units="mm"
     showgrid="false"
     inkscape:zoom="1.5969425"
     inkscape:cx="92.050904"
     inkscape:cy="148.4086"
     inkscape:window-width="1918"
     inkscape:window-height="1021"
     inkscape:window-x="0"
     inkscape:window-y="1"
     inkscape:window-maximized="0"
     inkscape:current-layer="layer1" />
  <defs
     id="defs9" />
  <g
     inkscape:label="Layer 1"
     inkscape:groupmode="layer"
     id="layer1"
     transform="translate(-44.385933,-27.682394)">
    <path
       style="fill:none;stroke:#800080;stroke-width:0.665;stroke-linecap:butt;stroke-linejoin:miter;stroke-opacity:1;stroke-dasharray:none"
       d="M 67.677602,67.415509 C 67.462093,67.040827 67.279753,66.645 67.031076,66.291458 66.793253,65.953347 66.195393,65.616154 65.79679,65.537682 c -2.524366,-0.496975 -1.706904,6.004237 1.983674,2.90931"
       id="path1616" />
    <path
       style="fill:none;stroke:#800080;stroke-width:0.665;stroke-linecap:butt;stroke-linejoin:miter;stroke-opacity:1;stroke-dasharray:none"
       d="m 68.676785,60.790218 c -0.02447,0.392316 -0.06292,0.784008 -0.07347,1.176946 -0.02122,0.790646 0.02954,2.066713 -0.02938,2.882865 -0.01259,0.174517 -0.68126,4.758066 -0.646536,4.82681 0.100971,0.199895 0.279104,-0.351629 0.39674,-0.542195"
       id="path1618" />
    <path
       style="fill:none;stroke:#800080;stroke-width:0.665;stroke-linecap:butt;stroke-linejoin:miter;stroke-opacity:1;stroke-dasharray:none"
       d="m 73.70209,68.142832 c 1.105395,-3.545318 -3.436998,-2.284441 -2.556732,-0.145467 0.418221,1.016243 2.001985,0.512011 2.556732,0.145467 0.355894,-0.235153 0.489794,-0.698814 0.720003,-1.057925 0.04344,-0.06777 -0.08626,0.144338 -0.08816,0.224808 -0.01206,0.510593 0.08188,0.91938 0.220409,1.441426 0.244446,0.921227 0.657452,2.088872 1.763265,2.036522"
       id="path1620" />
    <path
       style="fill:none;stroke:#800080;stroke-width:0.665;stroke-linecap:butt;stroke-linejoin:miter;stroke-opacity:1;stroke-dasharray:none"
       d="m 79.094748,61.583672 c 1.595258,2.4131 0.837557,5.733698 0.837557,8.529558"
       id="path1622" />
    <path
       style="fill:none;stroke:#800080;stroke-width:0.665;stroke-linecap:butt;stroke-linejoin:miter;stroke-opacity:1;stroke-dasharray:none"
       d="m 78.345361,66.344356 c 1.135202,0.570752 2.314159,0.104685 3.511835,-0.07934"
       id="path1624" />
    <path
       style="fill:none;stroke:#800080;stroke-width:0.665;stroke-linecap:butt;stroke-linejoin:miter;stroke-opacity:1;stroke-dasharray:none"
       d="m 87.293934,67.058462 c -0.233611,-3.299672 -4.235323,-0.391076 -2.850608,0.727323 0.708952,0.572601 1.348312,0.579628 2.23347,0.343832 0.202864,-0.05404 0.394787,-0.201597 0.499592,-0.383503 0.116088,-0.201494 -0.06316,-0.834015 0.117546,-0.687652 0.997183,0.807682 -0.300704,3.233327 2.777143,2.803514"
       id="path1626" />
    <path
       style="fill:none;stroke:#800080;stroke-width:0.665;stroke-linecap:butt;stroke-linejoin:miter;stroke-opacity:1;stroke-dasharray:none"
       d="m 110.04007,68.208957 c -0.0539,0.392316 -0.24461,0.789742 -0.16164,1.176949 0.33331,1.555382 2.87722,1.216337 3.11511,-0.938914 0.0829,-0.750718 -1.35434,-2.48295 -1.98367,-1.864601 -1.18193,1.161296 -1.0054,1.969101 -1.16082,3.464724"
       id="path1632" />
    <path
       style="fill:none;stroke:#800080;stroke-width:0.665;stroke-linecap:butt;stroke-linejoin:miter;stroke-opacity:1;stroke-dasharray:none"
       d="m 115.72661,68.182504 c -0.1681,0.787972 -0.18427,1.74076 0.6906,2.155534 4.70879,2.232409 2.9739,-5.741733 0.33798,-3.187007 -0.34867,0.337929 -0.85913,0.57644 -1.02858,1.031473 -0.16517,0.443529 0.0784,0.943322 0.11754,1.414984"
       id="path1634" />
    <path
       style="fill:none;stroke:#800080;stroke-width:0.665;stroke-linecap:butt;stroke-linejoin:miter;stroke-opacity:1;stroke-dasharray:none"
       d="m 125.79191,67.428735 c 1.1587,0.106379 2.32965,-0.181379 3.48246,-0.06612"
       id="path1636" />
    <path
       style="fill:none;stroke:#800080;stroke-width:0.665;stroke-linecap:butt;stroke-linejoin:miter;stroke-opacity:1;stroke-dasharray:none"
       d="m 125.8213,69.293339 c 1.34339,0.591492 2.76397,0.167206 4.18776,0.357047"
       id="path1638" />
    <path
       style="fill:none;stroke:#800080;stroke-width:0.665;stroke-linecap:butt;stroke-linejoin:miter;stroke-opacity:1;stroke-dasharray:none"
       d="m 136.26866,71.872045 c -0.21003,-2.644585 1.28708,-6.138903 1.04327,-9.08498 1.92073,-0.866402 4.07032,-1.536884 6.17143,-1.996846"
       id="path1640" />
    <path
       style="fill:none;stroke:#800080;stroke-width:0.665;stroke-linecap:butt;stroke-linejoin:miter;stroke-opacity:1;stroke-dasharray:none"
       d="m 136.70948,67.481626 c 1.15839,-0.0768 2.23317,-0.510387 3.37959,-0.647984"
       id="path1642" />
    <path
       style="fill:none;stroke:#800080;stroke-width:0.665;stroke-linecap:butt;stroke-linejoin:miter;stroke-dasharray:none;stroke-opacity:1"
       d="m 103.50606,71.509625 c -0.21003,-2.644585 1.28708,-6.138903 1.04327,-9.08498 1.92073,-0.866402 4.07032,-1.536884 6.17143,-1.996846"
       id="path1640-3" />
    <path
       style="fill:none;stroke:#800080;stroke-width:0.665;stroke-linecap:butt;stroke-linejoin:miter;stroke-dasharray:none;stroke-opacity:1"
       d="m 103.94688,67.119206 c 1.15839,-0.0768 2.23317,-0.510387 3.37959,-0.647984"
       id="path1642-6" />
    <path
       style="fill:none;stroke:#800080;stroke-width:0.665;stroke-linecap:butt;stroke-linejoin:miter;stroke-opacity:1;stroke-dasharray:none"
       d="m 144.77642,68.076718 c -3.73581,3.659881 3.87183,3.11825 1.79265,-0.462843 -0.52565,-0.905349 -2.54783,0.692364 -2.18939,2.591922"
       id="path1644" />
    <path
       style="fill:none;stroke:#800080;stroke-width:0.665;stroke-linecap:butt;stroke-linejoin:miter;stroke-opacity:1;stroke-dasharray:none"
       d="m 149.08173,68.275082 c -1.10249,1.979676 2.34511,2.792005 3.33551,1.494327 0.832,-1.090136 0.45548,-2.925649 -1.16082,-2.882868 -0.6475,0.01714 -1.70491,1.076319 -2.17469,1.388541 z"
       id="path1646" />
    <path
       style="fill:none;stroke:#808080;stroke-width:0.264583px;stroke-linecap:butt;stroke-linejoin:miter;stroke-opacity:1"
       d="m 102.48742,57.272604 c -0.20572,-0.268894 -0.43301,-0.522576 -0.61715,-0.806675 -0.74274,-1.1459 -0.98612,-2.432585 -2.424495,-3.015102 -0.350422,-0.141917 -1.494797,-0.198361 -1.116729,-0.198361 0.229132,0 0.06961,-0.0084 0.470207,0.09257"
       id="path1648" />
    <path
       style="fill:none;stroke:#808080;stroke-width:0.264583px;stroke-linecap:butt;stroke-linejoin:miter;stroke-opacity:1"
       d="m 97.212306,55.434445 c -0.330989,-0.437811 -1.364602,-4.099483 -0.999183,-4.244943 0.06297,-0.02506 4.774957,-1.203365 3.893877,-1.137274"
       id="path1650" />
    <path
       style="fill:none;stroke:#800000;stroke-width:0.264583px;stroke-linecap:butt;stroke-linejoin:miter;stroke-opacity:1"
       d="m 56.936376,40.306047 c 0.240694,1.663004 0.448527,3.350461 0.852241,4.985493"
       id="path1652" />
    <path
       style="fill:none;stroke:#800000;stroke-width:0.264583px;stroke-linecap:butt;stroke-linejoin:miter;stroke-opacity:1"
       d="m 57.538821,39.380354 c 1.964616,-1.853459 5.153377,0.401297 4.525722,2.922532 -0.398748,1.601745 -1.875465,4.146992 -3.820414,4.178824 -0.519089,0.0085 0.07245,-0.54692 0.249796,-0.608309"
       id="path1654" />
    <path
       style="fill:none;stroke:#800000;stroke-width:0.264583px;stroke-linecap:butt;stroke-linejoin:miter;stroke-opacity:1"
       d="m 65.958416,42.567372 c -0.334383,-0.501563 -0.465672,-1.124011 -1.248979,-0.899245 -0.708504,0.203303 -0.876274,1.889802 -0.146934,2.168761 0.905555,0.346358 0.700014,-1.313469 1.395913,-1.269516 1.258784,0.0795 0.80223,2.986873 2.703676,2.446462"
       id="path1656" />
    <path
       style="fill:none;stroke:#800000;stroke-width:0.264583px;stroke-linecap:butt;stroke-linejoin:miter;stroke-opacity:1"
       d="m 69.675968,36.722305 c 0.757081,3.023606 0.201612,6.189025 0.440819,9.25689"
       id="path1658" />
    <path
       style="fill:none;stroke:#800000;stroke-width:0.264583px;stroke-linecap:butt;stroke-linejoin:miter;stroke-opacity:1"
       d="m 68.412297,42.263215 c 0.773715,-0.04499 1.547635,-0.0678 2.321628,-0.105794"
       id="path1660" />
    <path
       style="fill:none;stroke:#800000;stroke-width:0.264583px;stroke-linecap:butt;stroke-linejoin:miter;stroke-opacity:1"
       d="m 75.818016,42.408683 c 0.238678,0.07377 -0.487622,-1.567794 -0.940411,-1.322417 -0.146188,0.07922 -1.916457,1.350362 -1.351833,2.010069 1.374804,1.606319 1.090218,-0.85267 2.292244,-0.687652 0.455628,0.06255 0.42845,0.821261 0.72,1.176943 0.303715,0.370525 0.928624,0.577305 1.33714,0.753777"
       id="path1662" />
    <path
       style="fill:none;stroke:#800000;stroke-width:0.264583px;stroke-linecap:butt;stroke-linejoin:miter;stroke-opacity:1"
       d="m 85.780467,38.970409 c 0.428625,2.354109 0.283459,6.220407 0.308568,7.802234"
       id="path1664" />
    <path
       style="fill:none;stroke:#800000;stroke-width:0.264583px;stroke-linecap:butt;stroke-linejoin:miter;stroke-opacity:1"
       d="m 82.694756,39.380354 c -0.0688,0.410578 6.301023,-3.128195 6.288977,-3.081221 -0.04702,0.183359 -0.176327,0.335013 -0.264489,0.502518"
       id="path1666" />
    <path
       style="fill:none;stroke:#800000;stroke-width:0.264583px;stroke-linecap:butt;stroke-linejoin:miter;stroke-opacity:1"
       d="m 89.762507,41.760697 c 0.826701,0.885198 1.582193,1.832033 2.571438,2.539034"
       id="path1668" />
    <path
       style="fill:none;stroke:#800000;stroke-width:0.264583px;stroke-linecap:butt;stroke-linejoin:miter;stroke-opacity:1"
       d="m 93.450674,40.874679 c -0.497178,2.317609 -2.968164,5.633238 -2.968164,7.577428"
       id="path1670" />
    <path
       style="fill:none;stroke:#800000;stroke-width:0.264583px;stroke-linecap:butt;stroke-linejoin:miter;stroke-opacity:1"
       d="m 97.535579,41.099493 c -0.02479,1.919366 -0.01371,0.365254 0,2.499359 0.0026,0.405006 0.0042,1.216952 -0.01468,1.653017 -0.0042,0.09738 -0.009,0.386252 -0.0294,0.290933 -0.315227,-1.475177 -0.05223,-7.617971 2.453881,-7.35262 0.22312,0.02363 0.18413,0.510495 0.17633,0.555413 -0.149753,0.862544 -1.192756,3.220593 -2.218779,3.4515 -0.115303,0.02596 0.191863,-0.138686 0.293876,-0.198363"
       id="path1672" />
    <path
       style="fill:none;stroke:#800000;stroke-width:0.264583px;stroke-linecap:butt;stroke-linejoin:miter;stroke-opacity:1"
       d="m 102.01721,41.112716 c 0.97934,-0.423523 1.26442,-0.463166 2.08653,-1.137274 1.77515,-1.455571 -1.77403,-0.929817 -2.08653,1.137274 -0.41891,2.771027 2.58897,2.117355 4.21715,1.481103"
       id="path1674" />
    <path
       style="fill:none;stroke:#808080;stroke-width:0.264583px;stroke-linecap:butt;stroke-linejoin:miter;stroke-opacity:1"
       d="m 141.39683,58.277637 c -0.24027,-2.251636 -0.22648,-5.317421 0.16163,-7.273272"
       id="path1676" />
    <path
       style="fill:none;stroke:#808080;stroke-width:0.264583px;stroke-linecap:butt;stroke-linejoin:miter;stroke-opacity:1"
       d="m 138.67846,49.245556 c 0.44081,-0.312973 0.90091,-0.600411 1.32243,-0.938917 0.37765,-0.303265 0.73573,-0.834914 1.14614,-1.110824 1.98424,-1.333942 1.15034,2.700809 2.54203,2.790293"
       id="path1678" />
    <path
       style="fill:none;stroke:#800000;stroke-width:0.264583px;stroke-linecap:butt;stroke-linejoin:miter;stroke-opacity:1"
       d="m 122.77968,42.633491 c 0.35678,-1.413063 -0.29369,-3.473175 0,-5.09129 0.29076,-2.72475 4.29108,-2.852736 4.62858,-0.119017 0.17345,1.404994 -1.52831,3.170094 -2.63021,3.821776 -0.82168,0.48595 -2.1743,0.615374 -1.71919,0.687652"
       id="path1680" />
    <path
       style="fill:none;stroke:#800000;stroke-width:0.264583px;stroke-linecap:butt;stroke-linejoin:miter;stroke-opacity:1"
       d="m 129.9356,39.367131 c 1.39671,-2.715149 -1.99818,-1.128993 -1.46939,0.67443 0.1325,0.451872 1.14815,0.791845 1.38121,0.264486 0.0237,-0.05369 0.26282,-2.725862 1.13143,-1.943949 0.29194,0.2628 -0.24276,2.552258 1.32246,2.552258"
       id="path1682" />
    <path
       style="fill:none;stroke:#800000;stroke-width:0.264583px;stroke-linecap:butt;stroke-linejoin:miter;stroke-opacity:1"
       d="m 134.21152,33.654305 c -0.30816,2.612308 -0.6313,5.271151 -0.48491,7.908031"
       id="path1684" />
    <path
       style="fill:none;stroke:#800000;stroke-width:0.264583px;stroke-linecap:butt;stroke-linejoin:miter;stroke-opacity:1"
       d="m 132.56579,37.555423 c 0.88261,-0.189066 1.75007,-0.476065 2.65959,-0.476065"
       id="path1686" />
    <path
       style="fill:none;stroke:#800000;stroke-width:0.264583px;stroke-linecap:butt;stroke-linejoin:miter;stroke-opacity:1"
       d="m 139.41314,38.745595 c 0.13643,-0.478287 0.51253,-1.292003 -0.0735,-1.679464 -1.37174,-0.907002 -3.76792,1.840532 -2.55676,2.658055 1.12582,0.759917 3.66061,-1.741856 2.70369,-1.824932 -1.22573,-0.106413 0.83979,2.366383 1.38123,2.644828"
       id="path1688" />
    <path
       style="fill:none;stroke:#800000;stroke-width:0.264583px;stroke-linecap:butt;stroke-linejoin:miter;stroke-opacity:1"
       d="m 149.16989,34.55355 c -0.30368,0.06612 -0.66329,0.01069 -0.91103,0.198358 -1.61782,1.225466 -4.22694,8.64965 0.30857,6.122771"
       id="path1690" />
    <path
       style="fill:none;stroke:#800000;stroke-width:0.264583px;stroke-linecap:butt;stroke-linejoin:miter;stroke-opacity:1"
       d="m 150.93314,39.102648 c -0.13223,2.248569 3.27836,2.229712 2.64492,-0.224809 -0.50834,-1.969757 -2.50338,-1.28456 -2.64492,0.224809 -0.0715,0.762775 0.14694,1.525182 0.22041,2.287772"
       id="path1692" />
    <path
       style="fill:none;stroke:#800000;stroke-width:0.264583px;stroke-linecap:butt;stroke-linejoin:miter;stroke-opacity:1"
       d="m 154.57724,38.375319 c 1.07908,-0.09663 0.94372,0.257124 1.05796,1.229849 0.0331,0.281702 -0.0869,1.06952 0.0882,0.846339 0.43209,-0.342122 0.52247,-0.906508 0.83755,-1.322412 2.63386,-3.476638 0.50324,2.574989 0.83757,2.988654"
       id="path1694" />
    <path
       style="fill:none;stroke:#800000;stroke-width:0.264583px;stroke-linecap:butt;stroke-linejoin:miter;stroke-opacity:1"
       d="m 161.92419,38.110841 c -0.35266,-0.198363 -0.67351,-0.468945 -1.05796,-0.595087 -0.97897,-0.321218 -0.58682,1.667057 -0.49961,1.877827 0.23603,0.57051 1.36181,1.026932 1.33715,1.626566 -0.0109,0.265713 -3.48337,1.218268 -1.68979,0.859567"
       id="path1696" />
    <path
       style="fill:none;stroke:#800000;stroke-width:0.264583px;stroke-linecap:butt;stroke-linejoin:miter;stroke-opacity:1"
       d="m 165.64174,32.807967 c 1.19587,2.847298 -0.27919,5.855941 -0.27919,8.727921"
       id="path1698" />
    <path
       style="fill:none;stroke:#800000;stroke-width:0.264583px;stroke-linecap:butt;stroke-linejoin:miter;stroke-opacity:1"
       d="m 164.42214,37.661219 c 1.0735,0.294621 2.17333,0.03344 3.26204,-0.01323"
       id="path1700" />
    <path
       style="fill:none;stroke:#800000;stroke-width:0.264583px;stroke-linecap:butt;stroke-linejoin:miter;stroke-opacity:1"
       d="m 168.58051,38.705924 c 0.10776,0.326194 0.22617,0.649057 0.32326,0.978585 1.00796,3.421277 -0.0832,-0.506984 0.82286,-1.322411 0.25743,-0.231675 1.66884,-0.153551 1.9396,-0.185137"
       id="path1702" />
    <path
       style="fill:none;stroke:#800000;stroke-width:0.264583px;stroke-linecap:butt;stroke-linejoin:miter;stroke-opacity:1"
       d="m 173.34132,37.978597 c -0.66362,0.428998 0.60133,3.31806 1.36653,2.684497 0.55602,-0.460375 1.1425,-3.446661 1.32245,-2.896084"
       id="path1704" />
    <path
       style="fill:none;stroke:#800000;stroke-width:0.264583px;stroke-linecap:butt;stroke-linejoin:miter;stroke-opacity:1"
       d="m 179.45397,37.423184 c -0.25469,0.07053 -0.54788,0.05958 -0.76407,0.211587 -0.39633,0.278665 -0.32361,0.91353 -0.4702,1.375307 -0.70884,2.23275 0.3092,1.90486 2.05714,1.21662"
       id="path1706" />
    <path
       style="fill:none;stroke:#800000;stroke-width:0.264583px;stroke-linecap:butt;stroke-linejoin:miter;stroke-opacity:1"
       d="m 184.05316,32.530255 c 1.24917,2.017133 -1.63766,7.22504 -0.61714,8.727927"
       id="path1708" />
    <path
       style="fill:none;stroke:#800000;stroke-width:0.264583px;stroke-linecap:butt;stroke-linejoin:miter;stroke-opacity:1"
       d="m 182.46623,37.000012 c 1.18481,0.777174 2.222,-0.04064 3.45307,-0.409945"
       id="path1710" />
    <path
       style="fill:none;stroke:#800000;stroke-width:0.264583px;stroke-linecap:butt;stroke-linejoin:miter;stroke-opacity:1"
       d="m 186.80092,38.785269 c -0.0585,0.838568 0.12881,1.393997 0.83754,1.930723 1.35048,1.022715 3.25827,-1.348666 2.07185,-2.367121 -1.54827,-1.329076 -2.91498,1.140767 -2.33633,2.486139"
       id="path1712" />
    <path
       style="fill:none;stroke:#800000;stroke-width:0.264583px;stroke-linecap:butt;stroke-linejoin:miter;stroke-opacity:1"
       d="m 192.26704,37.661219 c 0.23636,-0.878001 0.97512,3.331869 0.47021,2.763845 -1.00429,-1.129818 0.9511,-2.942878 1.66041,-3.530843"
       id="path1714" />
  </g>
</svg>
